<svg class="svg-icon" style="width: 1em; height: 1em;vertical-align: middle;fill: currentColor;overflow: hidden;" viewBox="0 0 1024 1024" version="1.1" xmlns="http://www.w3.org/2000/svg"><path d="M671.240503 0c-194.510923 0-352.759497 158.246362-352.759497 352.759497 0 80.03549 26.809722 153.915935 71.894376 213.172896l-71.460891 71.460891c-0.45339 0.45339-0.86697 0.931108-1.258434 1.422096-5.849836-1.218624-11.861123-1.857793-17.974147-1.857793-23.332995 0-45.272645 9.087704-61.778251 25.59331l-212.316984 212.316984C9.085492 891.364641 0 913.302079 0 936.637286s9.085492 45.274857 25.584463 61.767193C42.090069 1014.910084 64.029719 1023.997788 87.362714 1023.997788s45.272645-9.087704 61.778251-25.59331l212.316984-212.316984c16.501183-16.494548 25.586675-38.431986 25.586675-61.769404 0-6.115235-0.639169-12.128734-1.857793-17.97857 0.490988-0.389252 0.966495-0.802832 1.419885-1.256222l71.458679-71.458679C517.324567 678.711484 591.205013 705.518995 671.240503 705.518995c194.510923 0 352.759497-158.246362 352.759497-352.759497S865.751426 0 671.240503 0zM125.679694 974.947631C115.441928 985.185397 101.835806 990.822914 87.362714 990.822914s-28.079214-5.637517-38.319192-15.877495C38.81018 964.7165 33.174874 951.112589 33.174874 936.637286s5.635305-28.079214 15.87086-38.310345l191.74635-191.74635 76.627325 76.627325L125.679694 974.947631zM340.761251 759.63385l-76.364137-76.364137c10.118337-8.705087 22.687191-13.106287 35.284796-13.106287 13.875944 0 27.756312 5.283652 38.319192 15.848743 10.233343 10.22892 15.868648 23.83283 15.868648 38.308133C353.86975 737.426589 349.234114 749.811875 340.761251 759.63385zM370.961445 673.814873c-2.826499-3.972138-5.984747-7.747439-9.501284-11.261764-3.52096-3.518748-7.300684-6.679208-11.275034-9.507919l61.574778-61.574778c6.634975 7.207794 13.566312 14.139131 20.774106 20.774106L370.961445 673.814873zM671.240503 672.34412c-176.220509 0-319.584623-143.364114-319.584623-319.584623S495.019993 33.174874 671.240503 33.174874s319.584623 143.364114 319.584623 319.584623S847.461012 672.34412 671.240503 672.34412z"  /><path d="M671.240503 70.773065c-155.488424 0-281.986432 126.498008-281.986432 281.986432S515.752078 634.745929 671.240503 634.745929s281.986432-126.498008 281.986432-281.986432S826.728927 70.773065 671.240503 70.773065zM671.240503 601.571055c-137.193587 0-248.811558-111.615759-248.811558-248.811558S534.046916 103.94794 671.240503 103.94794s248.811558 111.615759 248.811558 248.811558S808.43409 601.571055 671.240503 601.571055z"  /><path d="M786.421455 175.689711c-7.674454-5.002771-17.949819-2.837558-22.95259 4.839108-5.002771 7.674454-2.835346 17.95203 4.839108 22.95259 50.700055 33.042175 80.96881 88.846737 80.96881 149.278088 0 41.285025-14.450975 81.521725-40.692301 113.294408-5.834355 7.061825-4.836897 17.518545 2.22714 23.3529 3.091898 2.554465 6.834024 3.797417 10.554033 3.797417 4.777182 0 9.518977-2.054631 12.798867-6.024557 31.137937-37.702139 48.287135-85.440783 48.287135-134.417956C882.453869 281.073017 846.554232 214.880296 786.421455 175.689711z"  /><path d="M709.623832 145.029492C697.04392 142.718309 684.130047 141.546131 671.240503 141.546131c-9.1629 0-16.587437 7.426749-16.587437 16.587437s7.424537 16.587437 16.587437 16.587437c10.885782 0 21.782622 0.988611 32.389736 2.937082 1.015151 0.185779 2.021456 0.276457 3.016702 0.276457 7.849175 0 14.824746-5.597707 16.295498-13.592852C724.596759 155.331397 718.634128 146.686024 709.623832 145.029492z"  /></svg>