<svg id="Слой_1" data-name="Слой 1" xmlns="http://www.w3.org/2000/svg" viewBox="0 0 114.39 114.39">
  <defs>
    <style>
      .cls-1 {
        fill: #fff;
        stroke: #000;
        stroke-miterlimit: 10;
      }
    </style>
  </defs>
  <rect class="cls-1" x="0.5" y="0.5" width="113.39" height="113.39"/>
  <rect class="cls-1" x="85.54" y="85.54" width="28.35" height="28.35"/>
  <rect class="cls-1" x="57.19" y="85.54" width="28.35" height="28.35"/>
  <rect class="cls-1" x="28.85" y="85.54" width="28.35" height="28.35"/>
  <rect class="cls-1" x="0.5" y="85.54" width="28.35" height="28.35"/>
  <rect class="cls-1" x="85.54" y="57.19" width="28.35" height="28.35"/>
  <rect class="cls-1" x="57.19" y="57.19" width="28.35" height="28.35"/>
  <rect class="cls-1" x="28.85" y="57.19" width="28.35" height="28.35"/>
  <rect class="cls-1" x="0.5" y="57.19" width="28.35" height="28.35"/>
  <rect class="cls-1" x="85.54" y="28.85" width="28.35" height="28.35"/>
  <rect class="cls-1" x="57.19" y="28.85" width="28.35" height="28.35"/>
  <rect class="cls-1" x="28.85" y="28.85" width="28.35" height="28.35"/>
  <rect class="cls-1" x="0.5" y="28.85" width="28.35" height="28.35"/>
  <rect class="cls-1" x="85.54" y="0.5" width="28.35" height="28.35"/>
  <rect class="cls-1" x="57.19" y="0.5" width="28.35" height="28.35"/>
  <rect class="cls-1" x="28.85" y="0.5" width="28.35" height="28.35"/>
  <rect class="cls-1" x="0.5" y="0.5" width="28.35" height="28.35"/>
</svg>
